<mxfile host="08884a65-f49b-4bf5-a6e4-a4ddf3e45624" modified="2020-08-18T18:35:57.834Z" agent="5.0 (Macintosh; Intel Mac OS X 10_15_6) AppleWebKit/537.36 (KHTML, like Gecko) Code/1.48.0 Chrome/78.0.3904.130 Electron/7.3.2 Safari/537.36" etag="ghuqIZkjCPLo01Q0zcJj" version="13.1.3" pages="2">
    <diagram id="6hGFLwfOUW9BJ-s0fimq" name="stage 1">
        <mxGraphModel dx="2077" dy="2013" grid="1" gridSize="10" guides="1" tooltips="1" connect="1" arrows="1" fold="1" page="1" pageScale="1" pageWidth="827" pageHeight="1169" math="0" shadow="0">
            <root>
                <mxCell id="0"/>
                <mxCell id="1" parent="0"/>
                <mxCell id="4" value="" style="rounded=0;whiteSpace=wrap;html=1;rotation=90;" parent="1" vertex="1">
                    <mxGeometry x="568.13" y="91.88" width="357.5" height="613.75" as="geometry"/>
                </mxCell>
                <mxCell id="5" value="" style="rounded=0;whiteSpace=wrap;html=1;rotation=0;" parent="1" vertex="1">
                    <mxGeometry x="-60" y="91.88" width="357.5" height="613.75" as="geometry"/>
                </mxCell>
                <mxCell id="7" value="deck" style="rounded=0;whiteSpace=wrap;html=1;rotation=0;" parent="1" vertex="1">
                    <mxGeometry x="460" y="470" width="60" height="90" as="geometry"/>
                </mxCell>
                <mxCell id="8" value="discard" style="rounded=0;whiteSpace=wrap;html=1;rotation=0;" parent="1" vertex="1">
                    <mxGeometry x="970" y="470" width="60" height="90" as="geometry"/>
                </mxCell>
                <mxCell id="9" value="play area" style="rounded=0;whiteSpace=wrap;html=1;rotation=0;" parent="1" vertex="1">
                    <mxGeometry x="495.95" y="350" width="501.87" height="90" as="geometry"/>
                </mxCell>
                <mxCell id="10" value="market" style="rounded=0;whiteSpace=wrap;html=1;rotation=0;" parent="1" vertex="1">
                    <mxGeometry x="495.95" y="250" width="501.87" height="90" as="geometry"/>
                </mxCell>
                <mxCell id="11" value="hand" style="rounded=0;whiteSpace=wrap;html=1;rotation=0;" parent="1" vertex="1">
                    <mxGeometry x="537.82" y="470" width="418.13" height="90" as="geometry"/>
                </mxCell>
                <mxCell id="13" value="" style="rounded=0;whiteSpace=wrap;html=1;rotation=90;" parent="1" vertex="1">
                    <mxGeometry x="568.13" y="-320" width="357.5" height="613.75" as="geometry"/>
                </mxCell>
                <mxCell id="14" value="name" style="rounded=0;whiteSpace=wrap;html=1;rotation=0;" parent="1" vertex="1">
                    <mxGeometry x="490" y="-110" width="501.87" height="30" as="geometry"/>
                </mxCell>
                <mxCell id="15" value="games list" style="rounded=0;whiteSpace=wrap;html=1;rotation=0;verticalAlign=top;" parent="1" vertex="1">
                    <mxGeometry x="490" y="-60" width="501.87" height="200" as="geometry"/>
                </mxCell>
                <mxCell id="16" value="name" style="rounded=0;whiteSpace=wrap;html=1;rotation=0;" parent="1" vertex="1">
                    <mxGeometry x="490" y="-20" width="501.87" height="30" as="geometry"/>
                </mxCell>
                <mxCell id="17" value="+" style="rounded=0;whiteSpace=wrap;html=1;rotation=0;" parent="1" vertex="1">
                    <mxGeometry x="960" y="-60" width="31.87" height="30" as="geometry"/>
                </mxCell>
                <mxCell id="18" value="playerCount" style="rounded=0;whiteSpace=wrap;html=1;rotation=0;" parent="1" vertex="1">
                    <mxGeometry x="910" y="-20" width="81.87" height="30" as="geometry"/>
                </mxCell>
                <mxCell id="19" value="-&amp;gt;" style="rounded=0;whiteSpace=wrap;html=1;rotation=0;" parent="1" vertex="1">
                    <mxGeometry x="881.13" y="-20" width="28.87" height="30" as="geometry"/>
                </mxCell>
                <mxCell id="20" value="conditional on having a name, if in a game, and if player count is &amp;lt; 2" style="shape=callout;whiteSpace=wrap;html=1;perimeter=calloutPerimeter;position2=0;size=120;position=0.42;" parent="1" vertex="1">
                    <mxGeometry x="890" y="-180" width="190" height="170" as="geometry"/>
                </mxCell>
                <mxCell id="21" value="max 5, ordered by created desc" style="shape=callout;whiteSpace=wrap;html=1;perimeter=calloutPerimeter;position2=0;size=20;position=0.36;" parent="1" vertex="1">
                    <mxGeometry x="997.82" y="-70" width="190" height="70" as="geometry"/>
                </mxCell>
                <mxCell id="22" value="maybe have a history of the messages here?" style="shape=callout;whiteSpace=wrap;html=1;perimeter=calloutPerimeter;position2=0;size=20;position=0.36;" parent="1" vertex="1">
                    <mxGeometry x="1030" y="200" width="190" height="70" as="geometry"/>
                </mxCell>
                <mxCell id="23" value="Goal: pull data from an api and display as components" style="rounded=0;whiteSpace=wrap;html=1;rotation=0;" parent="1" vertex="1">
                    <mxGeometry x="-60" y="-200" width="357.5" height="220" as="geometry"/>
                </mxCell>
            </root>
        </mxGraphModel>
    </diagram>
    <diagram id="JW6b7oglUtqkoaZuiVqA" name="Page-2">
        <mxGraphModel dx="1250" dy="844" grid="1" gridSize="10" guides="1" tooltips="1" connect="1" arrows="1" fold="1" page="1" pageScale="1" pageWidth="827" pageHeight="1169" math="0" shadow="0">
            <root>
                <mxCell id="_Zn2w1BiYmN1P0zBxIJW-0"/>
                <mxCell id="_Zn2w1BiYmN1P0zBxIJW-1" parent="_Zn2w1BiYmN1P0zBxIJW-0"/>
                <mxCell id="_Zn2w1BiYmN1P0zBxIJW-2" value="&lt;font style=&quot;font-size: 19px&quot;&gt;Goals&lt;br&gt;&lt;/font&gt;0. skeleton client&lt;br&gt;1. push updates to server, and have it relayed to the client&lt;br&gt;2. Finish a single player games with minimal features&lt;br&gt;3. Finish a single player game with all features&lt;br&gt;4. Finish a multiplayer game&lt;br&gt;5. Style and assets&lt;br&gt;6. Animate&lt;br&gt;7. Sounds&lt;br&gt;8. Deploy" style="rounded=0;whiteSpace=wrap;html=1;rotation=0;align=left;verticalAlign=top;" parent="_Zn2w1BiYmN1P0zBxIJW-1" vertex="1">
                    <mxGeometry x="40" y="60" width="357.5" height="220" as="geometry"/>
                </mxCell>
            </root>
        </mxGraphModel>
    </diagram>
</mxfile>